<?xml version="1.0" standalone="no"?>
<!DOCTYPE svg PUBLIC "-//W3C//DTD SVG 20010904//EN"
 "http://www.w3.org/TR/2001/REC-SVG-20010904/DTD/svg10.dtd">
<svg version="1.0" xmlns="http://www.w3.org/2000/svg"
 width="769.000000pt" height="333.000000pt" viewBox="0 0 769.000000 333.000000"
 preserveAspectRatio="xMidYMid meet">

<g transform="translate(0.000000,333.000000) scale(0.100000,-0.100000)"
fill="#000000" stroke="none">
<path d="M1409 3251 c-48 -15 -193 -99 -954 -554 -203 -121 -253 -172 -289
-298 -15 -50 -16 -133 -14 -720 l3 -664 32 -67 c42 -90 95 -139 238 -224 66
-39 300 -178 519 -309 220 -131 422 -247 450 -258 68 -25 174 -26 241 0 43 17
320 179 982 575 144 86 184 124 230 224 l28 59 0 690 0 690 -27 57 c-50 107
-83 132 -482 370 -204 121 -443 264 -530 316 -221 132 -301 153 -427 113z
m192 -64 c25 -8 202 -108 394 -222 193 -115 422 -251 510 -303 88 -53 174
-106 192 -120 36 -27 88 -103 99 -145 l6 -28 -33 20 c-41 25 -89 27 -132 5
-18 -9 -124 -74 -237 -144 -668 -415 -777 -484 -816 -516 -26 -21 -55 -59 -71
-93 l-28 -56 0 -640 c0 -598 1 -642 18 -673 10 -18 25 -36 33 -39 29 -11 12
-23 -33 -23 -82 1 -25 -30 -908 496 -137 82 -266 165 -285 184 -19 20 -46 58
-60 85 l-25 50 0 680 0 680 24 49 c38 77 81 112 291 237 107 64 341 203 520
309 178 106 342 199 365 206 53 17 122 17 176 1z m327 -1686 l3 -43 37 6 c52
8 66 -4 57 -45 -12 -55 -23 -69 -56 -69 -85 0 -175 -108 -125 -149 7 -6 44
-15 80 -20 91 -10 118 -37 124 -120 6 -78 -18 -148 -74 -217 -38 -47 -44 -60
-44 -102 0 -42 -3 -50 -29 -65 -43 -25 -51 -22 -51 26 l0 42 -61 -3 -61 -4 7
44 c11 67 20 78 66 78 81 0 149 61 149 133 0 36 -24 50 -97 58 -51 5 -71 12
-90 32 -55 55 -36 186 42 282 38 46 45 61 45 99 0 37 5 48 28 65 37 28 46 22
50 -28z m510 -542 c-3 -28 -15 -39 -123 -105 -66 -40 -123 -74 -127 -74 -5 0
-8 15 -8 34 0 32 5 36 92 87 179 106 171 103 166 58z"/>
<path d="M5888 2390 c-92 -16 -157 -41 -217 -81 -118 -79 -176 -189 -169 -319
5 -94 33 -154 103 -225 66 -66 163 -116 343 -176 206 -69 252 -105 252 -197 0
-59 -23 -92 -83 -124 -61 -32 -204 -32 -263 -1 -58 31 -101 84 -119 148 -9 31
-25 59 -35 65 -24 13 -181 13 -214 1 -30 -12 -34 -30 -23 -100 11 -77 60 -163
129 -227 68 -62 105 -83 203 -114 213 -66 453 -14 584 126 77 82 95 134 88
253 -7 122 -19 153 -85 219 -78 79 -161 124 -326 177 -221 71 -276 112 -276
204 0 81 85 141 200 141 116 0 184 -50 216 -158 10 -31 24 -63 33 -69 21 -18
201 -17 226 0 15 12 17 24 13 81 -13 161 -144 306 -327 360 -67 20 -190 28
-253 16z"/>
<path d="M3286 2364 c-14 -14 -16 -87 -16 -658 0 -508 3 -646 13 -660 12 -16
35 -17 307 -14 267 3 300 5 351 24 137 49 240 143 276 249 23 71 20 185 -7
260 -17 45 -38 75 -84 121 l-62 61 42 42 c68 66 89 120 89 226 0 75 -4 98 -25
140 -33 67 -103 135 -174 169 -100 47 -167 56 -443 56 -216 0 -254 -2 -267
-16z m558 -239 c59 -30 81 -66 81 -132 0 -50 -3 -57 -37 -88 -50 -47 -120 -65
-245 -65 l-103 0 0 156 0 156 133 -4 c107 -2 139 -7 171 -23z m44 -547 c53
-36 75 -78 74 -145 0 -68 -28 -114 -90 -151 -44 -25 -55 -27 -189 -30 l-143
-4 0 182 0 182 153 -4 c148 -3 155 -4 195 -30z"/>
<path d="M4758 2366 c-12 -11 -151 -411 -421 -1212 -42 -123 -41 -124 108
-124 78 0 116 4 123 13 5 6 31 78 56 160 l47 147 186 -2 186 -3 48 -143 c27
-79 54 -150 60 -158 9 -11 36 -14 122 -12 92 3 112 6 121 20 9 15 -32 146
-203 660 -117 354 -220 649 -229 656 -23 17 -186 16 -204 -2z m155 -605 c26
-82 47 -154 47 -160 0 -7 -35 -11 -100 -11 -88 0 -100 2 -100 17 0 23 93 303
100 303 4 0 27 -67 53 -149z"/>
<path d="M6622 2368 c-17 -17 -17 -1309 0 -1326 18 -18 212 -16 227 1 7 9 12
106 13 288 l3 274 223 3 222 2 0 -278 c0 -203 3 -281 12 -290 8 -8 49 -12 120
-12 96 0 108 2 118 19 14 27 14 1285 0 1312 -10 17 -22 19 -118 19 -71 0 -112
-4 -120 -12 -9 -9 -12 -83 -12 -270 l0 -258 -222 2 -223 3 -3 254 c-1 167 -6
259 -13 268 -15 17 -210 18 -227 1z"/>
<path d="M5683 816 c-25 -21 -28 -31 -28 -81 0 -48 4 -60 24 -76 50 -41 115
-16 109 41 -3 31 -6 35 -35 38 -19 2 -33 -1 -33 -7 0 -6 7 -11 15 -11 9 0 15
-9 15 -25 0 -19 -5 -25 -23 -25 -13 0 -28 5 -35 12 -15 15 -16 82 -2 109 13
23 48 25 56 4 8 -19 34 -20 34 -1 0 16 -17 31 -47 40 -15 5 -30 -1 -50 -18z"/>
<path d="M3270 821 c0 -5 12 -11 28 -13 26 -3 27 -5 32 -82 3 -49 10 -81 17
-83 9 -3 13 19 15 79 3 82 3 83 31 86 57 7 24 22 -48 22 -41 0 -75 -4 -75 -9z"/>
<path d="M3482 738 c2 -59 7 -93 15 -95 8 -3 13 11 15 39 3 40 5 43 33 43 27
0 30 -4 35 -38 9 -72 25 -44 28 51 2 77 0 92 -13 92 -11 0 -15 -11 -15 -40 0
-39 -1 -40 -35 -40 -34 0 -35 1 -35 40 0 29 -4 40 -15 40 -13 0 -15 -15 -13
-92z"/>
<path d="M3680 740 l0 -90 65 0 c75 0 89 17 18 22 -44 3 -48 5 -48 28 0 22 5
25 43 28 54 4 55 22 1 22 -38 0 -40 1 -37 28 3 24 7 27 46 30 67 5 49 22 -23
22 l-65 0 0 -90z"/>
<path d="M4080 735 l0 -95 40 0 c62 0 90 17 90 56 0 18 -4 35 -10 39 -6 3 -5
15 3 32 10 22 8 28 -12 44 -15 12 -39 19 -67 19 l-44 0 0 -95z m78 66 c23 -14
10 -46 -21 -49 -24 -3 -27 0 -27 27 0 32 19 41 48 22z m16 -87 c9 -22 -11 -44
-40 -44 -20 0 -24 5 -24 30 0 26 3 30 29 30 17 0 31 -6 35 -16z"/>
<path d="M4290 810 c-30 -30 -28 -119 3 -148 63 -59 138 20 107 112 -18 55
-73 73 -110 36z m68 -8 c35 -23 21 -132 -17 -132 -28 0 -44 36 -38 83 7 48 27
66 55 49z"/>
<path d="M4470 751 c0 -71 2 -82 22 -95 31 -22 64 -20 88 4 16 16 20 33 20 95
0 68 -2 75 -20 75 -17 0 -19 -8 -22 -77 -3 -76 -4 -78 -28 -78 -24 0 -25 2
-28 78 -2 59 -6 77 -17 77 -12 0 -15 -17 -15 -79z"/>
<path d="M4672 738 c2 -59 7 -93 15 -95 7 -3 13 10 15 34 4 53 28 54 57 3 12
-22 26 -40 30 -40 18 0 18 14 -1 46 -19 32 -19 36 -4 53 41 45 8 91 -65 91
l-50 0 3 -92z m93 51 c15 -15 -9 -44 -36 -44 -25 0 -36 23 -25 51 6 16 41 11
61 -7z"/>
<path d="M4870 734 c0 -72 3 -95 13 -92 7 3 14 28 17 59 5 58 7 58 45 -16 35
-68 45 -58 45 49 0 79 -3 96 -15 96 -12 0 -15 -13 -15 -57 l-1 -58 -30 58
c-45 87 -59 77 -59 -39z"/>
<path d="M5070 740 l0 -90 60 0 c33 0 60 4 60 10 0 6 -20 10 -45 10 -43 0 -45
1 -45 30 0 28 2 30 40 30 51 0 53 18 3 22 -33 3 -38 6 -38 28 0 22 5 25 43 28
64 5 50 22 -18 22 l-60 0 0 -90z"/>
<path d="M5505 813 c-9 -24 -55 -156 -55 -160 0 -12 31 1 40 17 6 12 21 20 35
20 14 0 29 -8 35 -20 6 -11 18 -20 26 -20 17 0 17 -4 -20 108 -23 68 -47 89
-61 55z m40 -80 c5 -19 2 -23 -14 -23 -21 0 -26 15 -15 45 8 19 19 10 29 -22z"/>
<path d="M5901 808 c-4 -13 -18 -49 -30 -81 -11 -32 -21 -62 -21 -67 0 -19 32
-10 37 10 4 14 14 20 34 20 18 0 32 -7 39 -20 6 -11 17 -20 25 -20 10 0 7 21
-17 90 -30 92 -50 112 -67 68z m39 -80 c0 -11 -8 -18 -20 -18 -23 0 -23 0 -9
37 8 22 12 24 19 13 6 -8 10 -23 10 -32z"/>
<path d="M6060 821 c0 -5 9 -11 20 -14 17 -4 20 -14 20 -71 0 -59 -2 -66 -20
-66 -11 0 -20 -7 -20 -15 0 -13 11 -15 55 -13 54 3 76 20 35 26 -19 3 -21 9
-18 70 3 61 5 67 26 70 46 7 20 22 -38 22 -33 0 -60 -4 -60 -9z"/>
<path d="M6252 738 c2 -62 7 -93 16 -96 9 -3 12 12 12 52 0 31 4 56 8 56 4 0
20 -25 35 -56 38 -78 51 -67 55 44 2 76 0 92 -12 92 -11 0 -16 -15 -18 -57
l-3 -58 -30 58 c-19 38 -35 57 -47 57 -17 0 -18 -8 -16 -92z"/>
<path d="M6672 814 c-12 -8 -22 -26 -22 -40 0 -19 10 -29 48 -47 49 -23 59
-42 30 -61 -14 -8 -22 -8 -35 2 -45 32 -75 24 -34 -9 43 -35 121 -19 121 25 0
26 -14 41 -63 65 -17 9 -32 23 -32 31 0 21 49 25 65 6 16 -20 30 -20 30 -2 0
19 -38 46 -65 46 -11 0 -31 -7 -43 -16z"/>
<path d="M6850 735 c0 -57 4 -95 10 -95 6 0 10 13 10 29 0 47 10 61 40 61 27
0 29 -3 32 -42 2 -23 9 -43 16 -46 9 -3 12 20 12 92 0 79 -3 96 -15 96 -11 0
-15 -11 -15 -41 0 -39 -1 -40 -32 -37 -21 2 -34 9 -34 18 -1 8 -2 25 -3 38 0
12 -5 22 -11 22 -6 0 -10 -38 -10 -95z"/>
<path d="M7040 740 l0 -90 65 0 c37 0 65 4 65 10 0 6 -20 10 -45 10 -43 0 -45
1 -45 30 0 28 2 30 40 30 22 0 40 5 40 10 0 6 -18 10 -41 10 -38 0 -40 1 -37
28 3 24 7 27 46 30 67 5 49 22 -23 22 l-65 0 0 -90z"/>
<path d="M7240 740 l0 -90 65 0 c37 0 65 4 65 10 0 6 -22 10 -50 10 l-50 0 0
80 c0 64 -3 80 -15 80 -12 0 -15 -17 -15 -90z"/>
<path d="M7440 740 l0 -90 66 0 c41 0 63 4 59 10 -3 6 -26 10 -51 10 l-44 0 0
80 c0 64 -3 80 -15 80 -12 0 -15 -17 -15 -90z"/>
<path d="M5287 734 c-17 -18 -3 -25 43 -22 28 2 51 8 53 13 2 11 -85 20 -96 9z"/>
</g>
</svg>
